<?xml version="1.0" encoding="iso-8859-1"?>
<!-- Generator: Adobe Illustrator 16.0.0, SVG Export Plug-In . SVG Version: 6.00 Build 0)  -->
<!DOCTYPE svg PUBLIC "-//W3C//DTD SVG 1.1//EN" "http://www.w3.org/Graphics/SVG/1.1/DTD/svg11.dtd">
<svg version="1.1" id="Capa_1" xmlns="http://www.w3.org/2000/svg" xmlns:xlink="http://www.w3.org/1999/xlink" x="0px" y="0px"
	 width="25px" height="25px" viewBox="0 0 25 25" style="enable-background:new 0 0 25 25;" xml:space="preserve">
<g>
	<g>
		<path d="M17,3.213c0-1.379-1.121-2.5-2.5-2.5h-4c-1.379,0-2.5,1.121-2.5,2.5v0.5H4.5v15.38v0.62v0.619h2.022v-0.619h6.455
			l-3,4.574l8.5-4.574v0.619H20.5v-0.619v-0.62V3.713H17V3.213z M9,3.213c0-0.828,0.673-1.5,1.5-1.5h4c0.827,0,1.5,0.672,1.5,1.5
			v0.5H9V3.213z"/>
		<path d="M0,7.713v8c0,2.029,1.536,3.698,3.5,3.949V3.764C1.536,4.014,0,5.684,0,7.713z"/>
		<path d="M21.5,3.764v15.898c1.964-0.251,3.5-1.92,3.5-3.949v-8C25,5.684,23.464,4.014,21.5,3.764z"/>
	</g>
</g>
<g>
</g>
<g>
</g>
<g>
</g>
<g>
</g>
<g>
</g>
<g>
</g>
<g>
</g>
<g>
</g>
<g>
</g>
<g>
</g>
<g>
</g>
<g>
</g>
<g>
</g>
<g>
</g>
<g>
</g>
</svg>
